<?xml version="1.0" encoding="UTF-8" standalone="no"?>
<!-- Created with Inkscape (http://www.inkscape.org/) -->

<svg
   xmlns:dc="http://purl.org/dc/elements/1.1/"
   xmlns:cc="http://creativecommons.org/ns#"
   xmlns:rdf="http://www.w3.org/1999/02/22-rdf-syntax-ns#"
   xmlns:svg="http://www.w3.org/2000/svg"
   xmlns="http://www.w3.org/2000/svg"
   xmlns:sodipodi="http://sodipodi.sourceforge.net/DTD/sodipodi-0.dtd"
   xmlns:inkscape="http://www.inkscape.org/namespaces/inkscape"
   version="1.1"
   id="svg3732"
   xml:space="preserve"
   width="126.36"
   height="126.36"
   viewBox="0 0 126.36 126.36"
   sodipodi:docname="nydusicon.svg"
   inkscape:version="0.92.4 5da689c313, 2019-01-14"><metadata
     id="metadata3738"><rdf:RDF><cc:Work
         rdf:about=""><dc:format>image/svg+xml</dc:format><dc:type
           rdf:resource="http://purl.org/dc/dcmitype/StillImage" /><dc:title></dc:title></cc:Work></rdf:RDF></metadata><defs
     id="defs3736" /><sodipodi:namedview
     pagecolor="#ffffff"
     bordercolor="#666666"
     borderopacity="1"
     objecttolerance="10"
     gridtolerance="10"
     guidetolerance="10"
     inkscape:pageopacity="0"
     inkscape:pageshadow="2"
     inkscape:window-width="1920"
     inkscape:window-height="1034"
     id="namedview3734"
     showgrid="false"
     inkscape:zoom="4.6446552"
     inkscape:cx="95.157363"
     inkscape:cy="55.904169"
     inkscape:window-x="0"
     inkscape:window-y="20"
     inkscape:window-maximized="1"
     inkscape:current-layer="g3740" /><g
     id="g3740"
     inkscape:groupmode="layer"
     inkscape:label="ink_ext_XXXXXX"
     transform="matrix(1.3333333,0,0,-1.3333333,0,126.36)"><g
       id="g3742"
       transform="scale(0.1)"><path
         d="M 947.676,473.84 C 947.676,212.141 735.527,0.00390625 473.84,0.00390625 212.148,0.00390625 0,212.141 0,473.84 c 0,261.687 212.148,473.836 473.84,473.836 261.687,0 473.836,-212.149 473.836,-473.836"
         style="fill:#74489f;fill-opacity:1;fill-rule:nonzero;stroke:none"
         id="path3744"
         inkscape:connector-curvature="0" /><path
         d="M 163.242,735.477 13.1133,585.34 c 0,0 -41.8555,-177.211 35.6758,-317.516 C 126.32,127.531 186.629,95.5273 260.465,51.2305 334.305,6.93359 465.984,-10.3008 552.141,6.93359 638.281,24.1602 639.512,30.3047 639.512,30.3047 L 765.031,175.527 163.242,735.477"
         style="fill:#322247;fill-opacity:1;fill-rule:nonzero;stroke:none"
         id="path3746"
         inkscape:connector-curvature="0" /><path
         d="M 575.977,575.969 C 738.625,413.34 824.738,235.754 768.332,179.348 711.926,122.93 534.348,209.055 371.707,371.699 209.059,534.344 122.938,711.926 179.348,768.328 c 56.41,56.41 233.984,-29.715 396.629,-192.359"
         style="fill:#ffffff;fill-opacity:1;fill-rule:nonzero;stroke:none"
         id="path3748"
         inkscape:connector-curvature="0" /><path
         d="M 539.941,517.223 C 633.887,423.281 689.602,326.68 664.379,301.457 639.16,276.223 542.543,331.934 448.602,425.879 354.664,519.816 298.953,616.434 324.188,641.641 c 25.218,25.23 121.82,-30.481 215.753,-124.418"
         style="fill:#322247;fill-opacity:1;fill-rule:nonzero;stroke:none"
         id="path3750"
         inkscape:connector-curvature="0" /><path
         d="m 552.852,672.48 -70.379,15.77 258.742,52.957 -52.961,-258.734 -15.774,70.375 C 659.121,612.516 612.52,659.117 552.852,672.48"
         style="fill:#ffffff;fill-opacity:1;fill-rule:nonzero;stroke:none"
         id="path3752"
         inkscape:connector-curvature="0" /><path
         d="M 672.668,622.031 499.16,448.527 l -50.637,50.625 173.508,173.512 50.637,-50.633"
         style="fill:#ffffff;fill-opacity:1;fill-rule:nonzero;stroke:none"
         id="path3754"
         inkscape:connector-curvature="0" /><path
         d="m 397.426,277.797 70.375,-15.774 -258.738,-52.96 52.96,258.738 15.766,-70.379 c 13.363,-59.668 59.969,-106.27 119.637,-119.625"
         style="fill:#ffffff;fill-opacity:1;fill-rule:nonzero;stroke:none"
         id="path3756"
         inkscape:connector-curvature="0" /><path
         d="m 277.605,328.242 119.86,119.844 50.629,-50.633 -119.86,-119.855 -50.629,50.644"
         style="fill:#ffffff;fill-opacity:1;fill-rule:nonzero;stroke:none"
         id="path3758"
         inkscape:connector-curvature="0" /></g></g></svg>